<svg xmlns="http://www.w3.org/2000/svg" viewBox="0 0 64 64">
    <defs>
        <radialGradient id="petalGradient" cx="50%" cy="50%" r="50%" fx="25%" fy="25%">
            <stop offset="0%" style="stop-color:#FFC0CB;stop-opacity:1" />
            <stop offset="70%" style="stop-color:#FF69B4;stop-opacity:1" />
            <stop offset="100%" style="stop-color:#FF1493;stop-opacity:1" />
        </radialGradient>
    </defs>

    <g transform="translate(32 32) scale(1.4)">
        <path d="M0 0 C-10 -10, -7 -20, 0 -17 C7 -20, 10 -10, 0 0 Z" fill="url(#petalGradient)" stroke="#FF1493"
            stroke-width="0.5" />
        <path d="M0 0 C10 -10, 20 -7, 17 0 C20 7, 10 10, 0 0 Z" fill="url(#petalGradient)" stroke="#FF1493"
            stroke-width="0.5" />
        <path d="M0 0 C-10 10, -20 7, -17 0 C-20 -7, -10 -10, 0 0 Z" fill="url(#petalGradient)" stroke="#FF1493"
            stroke-width="0.5" />
        <path d="M0 0 C10 10, 7 20, 0 17 C-7 20, -10 10, 0 0 Z" fill="url(#petalGradient)" stroke="#FF1493"
            stroke-width="0.5" />
    </g>

    <g transform="translate(32 32) scale(1.2)">
        <circle cx="0" cy="0" r="3" fill="#FFFF00" />
        <line x1="0" y1="0" x2="1.5" y2="5" stroke="#FFD700" stroke-width="0.5" />
        <line x1="0" y1="0" x2="-1.5" y2="5" stroke="#FFD700" stroke-width="0.5" />
        <line x1="0" y1="0" x2="3" y2="4" stroke="#FFD700" stroke-width="0.5" />
        <line x1="0" y1="0" x2="-3" y2="4" stroke="#FFD700" stroke-width="0.5" />
        <line x1="0" y1="0" x2="4" y2="3" stroke="#FFD700" stroke-width="0.5" />
        <line x1="0" y1="0" x2="-4" y2="3" stroke="#FFD700" stroke-width="0.5" />
        <circle cx="1.5" cy="5" r="0.3" fill="#FFA500" />
        <circle cx="-1.5" cy="5" r="0.3" fill="#FFA500" />
        <circle cx="3" cy="4" r="0.3" fill="#FFA500" />
        <circle cx="-3" cy="4" r="0.3" fill="#FFA500" />
        <circle cx="4" cy="3" r="0.3" fill="#FFA500" />
        <circle cx="-4" cy="3" r="0.3" fill="#FFA500" />
    </g>
</svg>